<mxfile host="Electron" agent="Mozilla/5.0 (Windows NT 10.0; Win64; x64) AppleWebKit/537.36 (KHTML, like Gecko) draw.io/26.2.15 Chrome/134.0.6998.205 Electron/35.2.1 Safari/537.36" version="26.2.15">
  <diagram name="Page-1" id="0mzH996tb3MiKEkl1AVQ">
    <mxGraphModel dx="476" dy="366" grid="1" gridSize="10" guides="1" tooltips="1" connect="1" arrows="1" fold="1" page="1" pageScale="1" pageWidth="850" pageHeight="1100" math="0" shadow="0">
      <root>
        <mxCell id="0" />
        <mxCell id="1" parent="0" />
        <mxCell id="QKZz40kGMmxX7ssRUb1s-7" value="" style="group;rotation=30;" parent="1" vertex="1" connectable="0">
          <mxGeometry x="270" y="160" width="150" height="150" as="geometry" />
        </mxCell>
        <mxCell id="QKZz40kGMmxX7ssRUb1s-1" value="" style="verticalLabelPosition=bottom;verticalAlign=top;html=1;shape=mxgraph.basic.sun;fillColor=#e3c800;fontColor=#000000;strokeColor=none;shadow=0;rotation=30;" parent="QKZz40kGMmxX7ssRUb1s-7" vertex="1">
          <mxGeometry x="-50" y="-50" width="200" height="200" as="geometry" />
        </mxCell>
        <mxCell id="QKZz40kGMmxX7ssRUb1s-2" value="&lt;pre&gt;&lt;b&gt;&lt;font face=&quot;Comic Sans MS&quot; style=&quot;color: rgb(0, 0, 0); font-size: 50px;&quot;&gt;JLT&lt;/font&gt;&lt;/b&gt;&lt;/pre&gt;" style="text;html=1;align=center;verticalAlign=middle;whiteSpace=wrap;rounded=0;fillColor=none;shadow=1;glass=1;shadowOpacity=25;rotation=0;" parent="QKZz40kGMmxX7ssRUb1s-7" vertex="1">
          <mxGeometry x="-2.5" y="13.75" width="105" height="72.5" as="geometry" />
        </mxCell>
      </root>
    </mxGraphModel>
  </diagram>
</mxfile>
